<svg xmlns="http://www.w3.org/2000/svg" viewBox="0 0 64 64">
  <rect width="64" height="64" rx="14" fill="#f7f4ed"/>
  <rect x="1.5" y="1.5" width="61" height="61" rx="12.5" fill="none" stroke="#d8d3c8" stroke-width="3"/>
  <path d="M9 45c10-5 36-5 46 0" fill="none" stroke="#24221f" stroke-width="5" stroke-linecap="round"/>
  <path d="M9 39c7-2 12-8 18-9 6-1 11 4 16 5 5 1 9-3 12-7" fill="none" stroke="#24221f" stroke-width="3" stroke-linecap="round"/>
  <path d="M16 30v15M48 28v17M32 31v15" stroke="#24221f" stroke-width="5" stroke-linecap="round"/>
  <circle cx="16" cy="28" r="3.6" fill="#c96442"/>
  <circle cx="48" cy="26" r="3.6" fill="#c96442"/>
  <g fill="#fff" stroke="#24221f" stroke-width="3">
    <rect x="22" y="18" width="13" height="9" rx="4.5" transform="rotate(-8 28.5 22.5)"/>
    <rect x="31" y="18" width="13" height="9" rx="4.5" transform="rotate(8 37.5 22.5)"/>
  </g>
  <circle cx="31" cy="22" r="2.2" fill="#24221f"/>
  <circle cx="35" cy="22" r="2.2" fill="#24221f"/>
</svg>
